<svg id="Calque_2" data-name="Calque 2" xmlns="http://www.w3.org/2000/svg" viewBox="0 0 129.37 34.34"><defs><style>.cls-1{fill:#fff;}</style></defs><path class="cls-1" d="M0,2.52H7.48V27.46h13.4v5.87H0Z"/><path class="cls-1" d="M24.39,10.28h6.89l0,23H24.39Z"/><path class="cls-1" d="M70.18,11.22c1.57,1.28,2.35,3.42,2.35,6.4V33.33H65.65V19q0-4-4.53-4a5.54,5.54,0,0,0-3.19.88c.07.74.1,1.32.1,1.75V33.33H51.14V19q0-4-4.53-4a7.41,7.41,0,0,0-3.41.79V33.33H36.31V11.94a22.5,22.5,0,0,1,5.5-1.8,30.1,30.1,0,0,1,6.61-.83q4.66,0,6.88,1.66a20.43,20.43,0,0,1,3.81-1.22,17.42,17.42,0,0,1,3.81-.44Q67.82,9.31,70.18,11.22Z"/><path class="cls-1" d="M98.68,23.44H83.25q.89,4.86,6.52,4.86a12,12,0,0,0,3.35-.49,32.67,32.67,0,0,0,3.48-1.27v5.91A21.93,21.93,0,0,1,88.1,34a12.83,12.83,0,0,1-6.23-1.45,10.1,10.1,0,0,1-4.16-4.18A13.23,13.23,0,0,1,76.23,22q0-6.1,3-9.45t8.61-3.35Q98.82,9.17,98.68,23.44ZM83.21,19.06h8.63a6.37,6.37,0,0,0-1.31-3.56,3.83,3.83,0,0,0-2.94-1.06Q83.9,14.44,83.21,19.06Z"/><circle class="cls-1" cx="27.83" cy="3.7" r="3.7"/><g id="DEMII-VERT"><path class="cls-1" d="M117.91,14.5a6.69,6.69,0,1,1-5.67,11.93L108.4,32A13.4,13.4,0,1,0,119.94,8.13Z"/></g><g id="GRAND_ORANGE"><path class="cls-1" d="M111.43,25.7a6.69,6.69,0,0,1-1.89-6.42l-6.6-1.48A13.4,13.4,0,0,0,107.23,31Z"/></g><g id="MOYEN_ROUGE"><path class="cls-1" d="M108.16,17.5a2,2,0,0,1,.08-.22,6.49,6.49,0,0,1,.89-1.63,6.59,6.59,0,0,1,1.37-1.37,1.33,1.33,0,0,1,.19-.14l-3.89-5.5-.2.14a13.69,13.69,0,0,0-2.91,2.88,13.29,13.29,0,0,0-2,4c0,.12-.07.24-.11.36Z"/></g><path id="PETIT_ROSE" class="cls-1" d="M113.74,8.61a13.69,13.69,0,0,0-4.21,1.78l3.93,5.48a6.31,6.31,0,0,1,1.56-.66Z"/><path id="PETIT_JAUNE" class="cls-1" d="M119,6a13.6,13.6,0,0,0-4.22-.18l1,6.64a6.74,6.74,0,0,1,1.49,0Z"/></svg>